<?xml version="1.0" encoding="UTF-8"?>
<svg width="100px" height="114px" viewBox="0 0 100 114" version="1.1" xmlns="http://www.w3.org/2000/svg" xmlns:xlink="http://www.w3.org/1999/xlink">
    <title>Bear</title>
    <defs>
        <linearGradient x1="79.4151707%" y1="-9.67367122%" x2="10.2057037%" y2="103.658984%" id="linearGradient-1">
            <stop stop-color="#FEA803" offset="0%"></stop>
            <stop stop-color="#F35465" offset="28.8490005%"></stop>
            <stop stop-color="#8C359A" offset="52.3952671%"></stop>
            <stop stop-color="#523D8F" offset="64.4804414%"></stop>
            <stop stop-color="#3E3A70" offset="100%"></stop>
            <stop stop-color="#3E3A70" offset="100%"></stop>
        </linearGradient>
        <path d="M99.9999994,41.9776119 C99.9999994,42.6047168 99.9999994,43.2318246 99.9316543,43.944692 C97.1145289,46.1811664 94.3634659,48.3268453 90.4359789,48.1646922 C90.7810097,48.316147 90.9634205,48.4052972 91.1529256,48.47522 C91.2364334,48.506028 91.3349095,48.4941625 91.4256651,48.5078043 C92.2783125,48.6359099 92.3850614,48.8857213 91.8872035,49.6287616 C91.0724698,50.8447334 89.7573897,51.0225381 88.4873688,51.0948864 C86.5949203,51.202683 84.7612522,50.7745429 82.9558416,50.1973565 C79.9391276,49.2329213 76.8585888,48.4478054 73.894011,47.3472112 C71.6004386,46.4957252 69.3867698,45.5428024 66.8688703,45.8952377 C65.9680722,46.0213248 65.0672912,46.147728 64.1656733,46.2676946 C60.9320741,46.6979554 57.9386582,47.8462049 55.2122487,49.5780716 C51.0129444,52.2455472 47.8435972,55.8958082 45.6960024,60.3806737 C44.8336929,62.1814386 44.1888325,64.086339 43.3971774,66.0632632 C43.1709175,64.1984513 42.9533034,62.4049116 42.7142728,60.4348539 C42.392503,60.7135317 42.2522701,60.7928375 42.170445,60.912192 C40.9749131,62.6559869 40.1634957,64.5559453 40.1288701,66.6913843 C40.1039323,68.2293565 40.5544424,69.8406162 40.2315567,71.2945226 C39.5584675,74.3253679 38.5134597,77.273605 37.6212647,80.2557875 C37.0189752,79.4177382 36.572314,78.6075422 36.2698655,77.7466787 C35.9630043,76.8732612 35.7817806,75.9536118 35.576547,75.047194 C35.3814623,74.1856021 35.2264718,73.3149401 35.0538509,72.4482636 C33.6317433,76.9887612 33.5752401,81.491772 35.0677974,85.9912416 C34.9923034,86.0271226 34.9168095,86.0630035 34.8413155,86.0988845 C33.1668938,84.4947416 31.4924752,82.8906045 29.6630547,81.1379675 C30.2620674,84.2994519 31.3468164,87.0591576 32.73552,89.6429547 C34.3096832,92.571828 36.2447397,95.3048991 37.9694526,98.1554287 C38.8526062,99.6150687 39.508034,101.229642 39.3254978,102.94859 C39.1651153,104.458914 38.9839002,105.895507 39.3167239,107.433513 C39.6512358,108.979308 38.0912382,110.322833 36.6760795,109.750537 C35.7657248,109.38239 34.7856179,109.171682 33.9041582,108.749663 C29.3036817,106.547114 25.0999166,103.706383 21.3344845,100.293732 C17.7315526,97.0283507 14.5485422,93.3928304 12.0744948,89.1269285 C9.65711828,84.9587284 8.52903041,80.4723142 8.04501866,75.7736776 C7.84626157,73.8442093 7.90029496,71.8888468 7.83206735,69.9455205 C7.8256194,69.7618399 7.76695914,69.5799869 7.73253937,69.3972858 C6.35440392,72.1233937 6.01394925,75.0401853 5.79565746,77.9926356 C4.13925112,73.3096507 4.61707332,68.5652604 5.2726834,63.8063744 C3.93363246,67.3672405 2.86724067,70.9607707 2.53368619,74.7896166 C2.41575858,74.6790985 2.3180806,74.6306405 2.29193955,74.5568403 C1.22876101,71.5552771 0.641270896,68.4552149 0.3592,65.2892554 C0.342038619,65.0966302 0.124371828,64.9218772 -5.59703039e-07,64.738806 C-5.59703039e-07,62.0607802 -5.59703039e-07,59.3827489 0.0804225746,56.6158522 C0.293332276,55.9344392 0.48596791,55.3481543 0.548390672,54.7483244 C0.910573321,51.2680396 2.18784571,48.0607729 3.57850317,44.9119312 C4.52611455,42.7662664 5.70284534,40.7143181 7.45529347,39.0640343 C7.39424832,38.9722853 7.33320317,38.880539 7.27215877,38.7887897 C5.84867817,39.5629371 4.4251972,40.3370815 2.96763172,41.1297642 C5.88638396,34.9903961 6.31622052,34.4772481 13.9421035,28.0811509 C11.1594136,28.6357909 8.69868414,29.3706297 6.36859646,30.5682651 C7.56536455,28.2855076 9.26858638,26.4513159 11.0502364,24.7181793 C12.8041651,23.0120047 14.73025,21.4828063 16.5807966,19.8759534 C16.5590571,19.8287224 16.5373175,19.7814912 16.5155782,19.7342603 C14.6310677,20.1504864 12.7465575,20.566714 10.9053718,20.9733707 C12.5803521,18.1874944 18.6444524,14.0047244 25.7748162,12.0903187 C24.9830957,11.504808 24.1396035,10.8810112 23.2961114,10.2572142 C24.7314312,10.1872181 26.0322002,10.4058821 27.3360181,10.4259291 C29.0598799,10.4524328 30.7857655,10.2871767 32.5114465,10.2695998 C35.1763966,10.2424601 37.7132416,9.59616698 40.194483,8.71497481 C40.8399668,8.48573713 41.3904646,7.98904496 41.9845894,7.61519608 C41.9590282,7.54729534 41.9334668,7.4793944 41.9079054,7.41149272 C41.1473032,7.34539963 40.3867009,7.27930634 39.5152619,7.20358172 C39.7020254,7.05301866 39.781858,6.95812164 39.8837759,6.91095187 C42.7136237,5.60126474 45.7246979,4.9674194 48.8071271,4.88843918 C51.2569427,4.82566754 53.7166312,5.07978116 56.1691683,5.23642817 C56.8318836,5.27875634 57.2963429,5.05600802 57.6692552,4.55139757 C59.113494,2.59711063 60.9973565,1.23204049 63.2537614,0.356000373 C63.3456728,0.320317724 63.3745791,0.122355037 63.4328358,-1.86566467e-07 C64.6183584,-1.86566467e-07 65.8038808,-1.86566467e-07 67.0230183,0.0554593284 C67.485667,0.436247015 67.9428442,0.730771082 68.3386675,1.09244198 C69.7578146,2.38913731 70.126525,4.16969216 70.5295106,5.93433097 C70.5910468,6.20382295 70.6781644,6.55536791 70.8751507,6.6874291 C71.2653487,6.94902687 71.7357578,7.09616026 72.1813373,7.26915616 C75.6761409,8.62602687 78.7637112,10.645097 81.5172282,13.1583384 C84.1191705,15.5332267 86.3581131,18.2210709 88.1655735,21.2647125 C89.2267483,23.0516662 90.1223994,24.8178254 89.1878271,26.9578364 C88.773642,27.9062612 88.8658153,28.9183203 89.4188554,29.7442308 C90.5590627,31.4469978 91.7231659,33.150747 93.048739,34.7083049 C94.9052213,36.8896854 96.9111998,38.9444037 98.8704284,41.0372065 C99.202694,41.3921157 99.621286,41.6661903 99.9999994,41.9776119 Z" id="path-2"></path>
        <linearGradient x1="61.9704411%" y1="6.29156967%" x2="41.9498519%" y2="100%" id="linearGradient-3">
            <stop stop-color="#FEA803" offset="0%"></stop>
            <stop stop-color="#DD706F" offset="37.4117862%"></stop>
            <stop stop-color="#535CA7" offset="67.4674557%"></stop>
            <stop stop-color="#376BA8" offset="81.6448968%"></stop>
            <stop stop-color="#0299C2" offset="100%"></stop>
        </linearGradient>
        <path d="M43.5565636,113.246269 C43.4915743,113.223745 43.5129991,113.201232 43.5344241,113.178709 C41.9033136,111.877863 42.4490259,109.889358 41.9983907,108.221527 C41.5532213,106.573908 41.7500539,104.934613 42.0784338,103.236867 C42.2890278,102.148085 41.803992,100.862702 41.4259896,99.7340302 C40.3828323,96.6192901 39.2079767,93.5488174 38.1473968,90.4396228 C37.9697487,89.9188312 37.943003,89.2378735 38.1173233,88.7225194 C39.8694366,83.5427185 41.7008841,78.3898026 43.4619562,73.2129737 C44.4436257,70.3272578 45.2768269,67.3904989 46.2826515,64.5137047 C47.3179688,61.5525545 49.0752319,59.0109185 51.0945334,56.6227927 C52.8260588,54.5750233 54.7829756,52.8023506 56.9992065,51.3107356 C59.4356252,49.6709226 61.2585267,49.8073351 63.3769989,51.8813802 C64.3240287,52.8085451 65.3902026,53.6140101 66.4828399,54.5431963 C65.2412187,55.0162414 64.0346528,54.8934424 62.8395024,54.734734 C63.1639793,55.682094 62.7309884,55.5807028 65.2798838,57.86865 C66.3121978,58.7952856 67.5634071,59.4780651 68.8522282,60.3663886 C67.7927045,60.4478181 66.7814567,60.5255299 65.7181243,60.6072496 C66.0253155,61.4244205 66.3992925,62.3470364 66.7208259,63.2875756 C67.8893701,66.7057209 68.363816,70.2447009 68.0680916,73.82283 C67.5922052,79.5808366 66.2455317,85.1659006 63.8882024,90.4490513 C62.3784194,93.8327162 60.7270653,97.1676043 58.9054506,100.392333 C57.8144131,102.323754 56.3926127,104.108463 54.9025578,105.76386 C53.163278,107.696135 51.2494672,109.486754 49.2857862,111.194417 C48.4301041,111.938534 47.2614828,112.322622 46.235594,112.871358 C46.0838716,112.952526 45.9355483,113.040047 45.8405907,113.18545 C45.1446733,113.246269 44.3938269,113.246269 43.5565636,113.246269 Z" id="path-4"></path>
    </defs>
    <g id="Page-1" stroke="none" stroke-width="1" fill="none" fill-rule="evenodd">
        <g id="Bear" fill-rule="nonzero">
            <g id="Path">
                <use fill="#C49999" xlink:href="#path-2"></use>
                <use fill="url(#linearGradient-1)" xlink:href="#path-2"></use>
            </g>
            <g id="Path">
                <use fill="#C49999" xlink:href="#path-4"></use>
                <use fill="url(#linearGradient-3)" xlink:href="#path-4"></use>
            </g>
        </g>
    </g>
</svg>